<svg width="1200" height="900" viewBox="0 0 1200 900" fill="none" xmlns="http://www.w3.org/2000/svg">
  <rect width="1200" height="900" rx="44" fill="url(#bg)"/>
  <rect x="136" y="120" width="928" height="660" rx="34" fill="#0A1529" stroke="#223A5B"/>
  <rect x="190" y="188" width="220" height="132" rx="22" fill="#12213F" stroke="#305481"/>
  <rect x="490" y="164" width="220" height="132" rx="22" fill="#12213F" stroke="#305481"/>
  <rect x="790" y="188" width="220" height="132" rx="22" fill="#12213F" stroke="#305481"/>
  <rect x="328" y="460" width="220" height="132" rx="22" fill="#12213F" stroke="#305481"/>
  <rect x="652" y="460" width="220" height="132" rx="22" fill="#12213F" stroke="#305481"/>
  <path d="M410 254H490" stroke="url(#line1)" stroke-width="4" stroke-linecap="round"/>
  <path d="M710 254H790" stroke="url(#line1)" stroke-width="4" stroke-linecap="round"/>
  <path d="M600 296V394" stroke="url(#line2)" stroke-width="4" stroke-linecap="round" stroke-dasharray="10 12"/>
  <path d="M600 394L438 460" stroke="url(#line2)" stroke-width="4" stroke-linecap="round"/>
  <path d="M600 394L762 460" stroke="url(#line2)" stroke-width="4" stroke-linecap="round"/>
  <text x="226" y="242" fill="#ECF1FF" font-family="Inter, Arial" font-size="24" font-weight="700">Memory</text>
  <text x="226" y="276" fill="#A9B6D3" font-family="Inter, Arial" font-size="18">Anchors and traces</text>
  <text x="532" y="220" fill="#ECF1FF" font-family="Inter, Arial" font-size="24" font-weight="700">Governor</text>
  <text x="532" y="254" fill="#A9B6D3" font-family="Inter, Arial" font-size="18">Review and policy</text>
  <text x="834" y="242" fill="#ECF1FF" font-family="Inter, Arial" font-size="24" font-weight="700">World state</text>
  <text x="834" y="276" fill="#A9B6D3" font-family="Inter, Arial" font-size="18">Zones and beings</text>
  <text x="356" y="514" fill="#ECF1FF" font-family="Inter, Arial" font-size="24" font-weight="700">Reversibility</text>
  <text x="356" y="548" fill="#A9B6D3" font-family="Inter, Arial" font-size="18">Checkpoints and rollback</text>
  <text x="688" y="514" fill="#ECF1FF" font-family="Inter, Arial" font-size="24" font-weight="700">Guidance</text>
  <text x="688" y="548" fill="#A9B6D3" font-family="Inter, Arial" font-size="18">Virgil and bounded support</text>
  <circle cx="600" cy="394" r="18" fill="#6EF0CF"/>
  <g opacity="0.5">
    <circle cx="1020" cy="150" r="80" fill="url(#glow1)"/>
    <circle cx="180" cy="730" r="100" fill="url(#glow2)"/>
  </g>
  <defs>
    <linearGradient id="bg" x1="78" y1="98" x2="1099" y2="820" gradientUnits="userSpaceOnUse">
      <stop stop-color="#0B1630"/>
      <stop offset="1" stop-color="#08111F"/>
    </linearGradient>
    <linearGradient id="line1" x1="410" y1="254" x2="790" y2="254" gradientUnits="userSpaceOnUse">
      <stop stop-color="#85A8FF"/>
      <stop offset="1" stop-color="#D995FF"/>
    </linearGradient>
    <linearGradient id="line2" x1="438" y1="460" x2="762" y2="460" gradientUnits="userSpaceOnUse">
      <stop stop-color="#6EF0CF"/>
      <stop offset="1" stop-color="#85A8FF"/>
    </linearGradient>
    <radialGradient id="glow1" cx="0" cy="0" r="1" gradientUnits="userSpaceOnUse" gradientTransform="translate(1020 150) rotate(90) scale(80)">
      <stop stop-color="#D995FF"/>
      <stop offset="1" stop-color="#D995FF" stop-opacity="0"/>
    </radialGradient>
    <radialGradient id="glow2" cx="0" cy="0" r="1" gradientUnits="userSpaceOnUse" gradientTransform="translate(180 730) rotate(90) scale(100)">
      <stop stop-color="#6EF0CF"/>
      <stop offset="1" stop-color="#6EF0CF" stop-opacity="0"/>
    </radialGradient>
  </defs>
</svg>
