<svg width="1400" height="1100" viewBox="0 0 1400 1100" fill="none" xmlns="http://www.w3.org/2000/svg">
  <rect width="1400" height="1100" rx="52" fill="url(#bg)" />
  <rect x="34" y="34" width="1332" height="1032" rx="40" stroke="url(#frameStroke)" />

  <g opacity="0.9">
    <circle cx="1120" cy="192" r="176" fill="url(#warmGlow)" />
    <circle cx="1028" cy="510" r="284" fill="url(#coolGlow)" />
    <circle cx="286" cy="824" r="244" fill="url(#seaGlow)" />
  </g>

  <g opacity="0.35">
    <path d="M58 874C214 766 346 718 494 694C646 670 804 666 964 724C1116 780 1230 866 1342 1010" stroke="url(#horizonLine)" stroke-width="2" />
    <path d="M122 790C286 706 454 656 642 650C842 644 1026 700 1264 866" stroke="url(#horizonLineSoft)" stroke-width="2" stroke-dasharray="12 16" />
  </g>

  <g opacity="0.9">
    <path d="M212 880C334 760 452 662 616 622C796 578 962 608 1116 728" stroke="url(#pathGlow)" stroke-width="6" stroke-linecap="round" />
    <path d="M366 910C446 828 520 770 632 736C758 696 874 706 972 780" stroke="url(#pathGlowSoft)" stroke-width="3" stroke-linecap="round" stroke-dasharray="10 16" />
  </g>

  <g filter="url(#blurGlow)">
    <circle cx="952" cy="520" r="214" fill="url(#coreFill)" />
  </g>

  <circle cx="952" cy="520" r="214" fill="url(#coreFillSolid)" />
  <circle cx="952" cy="520" r="316" stroke="url(#orbitA)" stroke-width="2" opacity="0.6" />
  <ellipse cx="952" cy="520" rx="394" ry="282" transform="rotate(-14 952 520)" stroke="url(#orbitB)" stroke-width="2" opacity="0.38" />
  <ellipse cx="952" cy="520" rx="438" ry="322" transform="rotate(18 952 520)" stroke="url(#orbitC)" stroke-width="1.5" opacity="0.28" />

  <g filter="url(#panelShadow)">
    <path d="M300 874L430 736C448 716 480 716 498 736L590 838C604 854 606 878 594 896L526 998C514 1018 488 1028 466 1020L330 968C294 954 276 904 300 874Z" fill="url(#platformFill)" />
    <path d="M634 722L736 596C756 572 792 570 814 592L906 686C922 702 926 728 916 748L858 858C844 886 810 900 780 894L672 868C626 856 604 760 634 722Z" fill="url(#bridgeFill)" />
    <path d="M998 860L1086 730C1100 708 1128 700 1150 710L1232 752C1262 766 1272 804 1254 828L1154 962C1136 986 1100 992 1076 976L1010 932C986 916 982 884 998 860Z" fill="url(#platformWarm)" />
  </g>

  <g opacity="0.95">
    <rect x="448" y="292" width="126" height="252" rx="36" fill="url(#pillarA)" stroke="url(#pillarStroke)" />
    <rect x="608" y="226" width="142" height="332" rx="42" fill="url(#pillarB)" stroke="url(#pillarStroke)" />
    <rect x="784" y="188" width="164" height="382" rx="48" fill="url(#pillarC)" stroke="url(#pillarStrokeStrong)" />
  </g>

  <g opacity="0.92">
    <circle cx="492" cy="414" r="10" fill="#8CECDC" />
    <circle cx="674" cy="360" r="10" fill="#8ABEFF" />
    <circle cx="868" cy="320" r="12" fill="#F4B46A" />
    <circle cx="1090" cy="760" r="12" fill="#8CECDC" />
    <circle cx="756" cy="808" r="10" fill="#8ABEFF" />
    <circle cx="538" cy="842" r="12" fill="#F4B46A" />
  </g>

  <g opacity="0.72">
    <path d="M1180 332L1228 298L1280 330L1244 388L1180 332Z" fill="url(#shardWarm)" />
    <path d="M1108 268L1140 226L1188 244L1174 298L1108 268Z" fill="url(#shardCool)" />
    <path d="M254 624L326 592L368 646L316 706L254 624Z" fill="url(#shardSea)" />
    <path d="M210 548L256 518L286 556L252 604L210 548Z" fill="url(#shardCool)" />
    <path d="M124 898L194 864L248 924L188 988L124 898Z" fill="url(#shardWarm)" />
  </g>

  <defs>
    <linearGradient id="bg" x1="122" y1="86" x2="1244" y2="1052" gradientUnits="userSpaceOnUse">
      <stop stop-color="#071120" />
      <stop offset="0.54" stop-color="#091329" />
      <stop offset="1" stop-color="#030711" />
    </linearGradient>
    <linearGradient id="frameStroke" x1="98" y1="74" x2="1310" y2="1052" gradientUnits="userSpaceOnUse">
      <stop stop-color="#FFFFFF" stop-opacity="0.18" />
      <stop offset="0.55" stop-color="#78B3FF" stop-opacity="0.24" />
      <stop offset="1" stop-color="#FFFFFF" stop-opacity="0.06" />
    </linearGradient>
    <radialGradient id="warmGlow" cx="0" cy="0" r="1" gradientUnits="userSpaceOnUse" gradientTransform="translate(1120 192) rotate(90) scale(176)">
      <stop stop-color="#F4B46A" stop-opacity="0.96" />
      <stop offset="1" stop-color="#F4B46A" stop-opacity="0" />
    </radialGradient>
    <radialGradient id="coolGlow" cx="0" cy="0" r="1" gradientUnits="userSpaceOnUse" gradientTransform="translate(1028 510) rotate(90) scale(284)">
      <stop stop-color="#72B6FF" stop-opacity="0.9" />
      <stop offset="0.52" stop-color="#68E6D7" stop-opacity="0.42" />
      <stop offset="1" stop-color="#68E6D7" stop-opacity="0" />
    </radialGradient>
    <radialGradient id="seaGlow" cx="0" cy="0" r="1" gradientUnits="userSpaceOnUse" gradientTransform="translate(286 824) rotate(90) scale(244)">
      <stop stop-color="#68E6D7" stop-opacity="0.62" />
      <stop offset="1" stop-color="#68E6D7" stop-opacity="0" />
    </radialGradient>
    <linearGradient id="pathGlow" x1="212" y1="880" x2="1116" y2="728" gradientUnits="userSpaceOnUse">
      <stop stop-color="#68E6D7" />
      <stop offset="0.54" stop-color="#89BEFF" />
      <stop offset="1" stop-color="#F4B46A" />
    </linearGradient>
    <linearGradient id="pathGlowSoft" x1="366" y1="910" x2="972" y2="780" gradientUnits="userSpaceOnUse">
      <stop stop-color="#89BEFF" />
      <stop offset="1" stop-color="#68E6D7" />
    </linearGradient>
    <linearGradient id="horizonLine" x1="58" y1="874" x2="1342" y2="1010" gradientUnits="userSpaceOnUse">
      <stop stop-color="#182540" stop-opacity="0" />
      <stop offset="0.35" stop-color="#3A557C" />
      <stop offset="1" stop-color="#182540" stop-opacity="0" />
    </linearGradient>
    <linearGradient id="horizonLineSoft" x1="122" y1="790" x2="1264" y2="866" gradientUnits="userSpaceOnUse">
      <stop stop-color="#68E6D7" stop-opacity="0" />
      <stop offset="0.52" stop-color="#68E6D7" stop-opacity="0.34" />
      <stop offset="1" stop-color="#F4B46A" stop-opacity="0" />
    </linearGradient>
    <radialGradient id="coreFill" cx="0" cy="0" r="1" gradientUnits="userSpaceOnUse" gradientTransform="translate(952 520) rotate(90) scale(214)">
      <stop stop-color="#B7F9F2" />
      <stop offset="0.48" stop-color="#79DDE5" />
      <stop offset="1" stop-color="#79DDE5" stop-opacity="0" />
    </radialGradient>
    <linearGradient id="coreFillSolid" x1="792" y1="370" x2="1090" y2="690" gradientUnits="userSpaceOnUse">
      <stop stop-color="#68E6D7" />
      <stop offset="1" stop-color="#69A7FF" />
    </linearGradient>
    <linearGradient id="orbitA" x1="636" y1="312" x2="1248" y2="728" gradientUnits="userSpaceOnUse">
      <stop stop-color="#68E6D7" />
      <stop offset="1" stop-color="#89BEFF" />
    </linearGradient>
    <linearGradient id="orbitB" x1="614" y1="226" x2="1324" y2="828" gradientUnits="userSpaceOnUse">
      <stop stop-color="#89BEFF" />
      <stop offset="1" stop-color="#F4B46A" />
    </linearGradient>
    <linearGradient id="orbitC" x1="560" y1="200" x2="1332" y2="860" gradientUnits="userSpaceOnUse">
      <stop stop-color="#68E6D7" />
      <stop offset="1" stop-color="#F4B46A" />
    </linearGradient>
    <linearGradient id="platformFill" x1="328" y1="750" x2="578" y2="988" gradientUnits="userSpaceOnUse">
      <stop stop-color="#0E1830" />
      <stop offset="1" stop-color="#16284E" />
    </linearGradient>
    <linearGradient id="bridgeFill" x1="666" y1="596" x2="894" y2="880" gradientUnits="userSpaceOnUse">
      <stop stop-color="#112040" />
      <stop offset="1" stop-color="#1B2C58" />
    </linearGradient>
    <linearGradient id="platformWarm" x1="1018" y1="724" x2="1238" y2="956" gradientUnits="userSpaceOnUse">
      <stop stop-color="#1A223F" />
      <stop offset="1" stop-color="#26203A" />
    </linearGradient>
    <linearGradient id="pillarA" x1="464" y1="292" x2="572" y2="544" gradientUnits="userSpaceOnUse">
      <stop stop-color="#111E3A" />
      <stop offset="1" stop-color="#1C2F57" />
    </linearGradient>
    <linearGradient id="pillarB" x1="626" y1="226" x2="744" y2="558" gradientUnits="userSpaceOnUse">
      <stop stop-color="#132449" />
      <stop offset="1" stop-color="#213A6A" />
    </linearGradient>
    <linearGradient id="pillarC" x1="806" y1="188" x2="936" y2="570" gradientUnits="userSpaceOnUse">
      <stop stop-color="#17315D" />
      <stop offset="1" stop-color="#234A84" />
    </linearGradient>
    <linearGradient id="pillarStroke" x1="462" y1="292" x2="876" y2="570" gradientUnits="userSpaceOnUse">
      <stop stop-color="#8ABEFF" stop-opacity="0.44" />
      <stop offset="1" stop-color="#68E6D7" stop-opacity="0.18" />
    </linearGradient>
    <linearGradient id="pillarStrokeStrong" x1="784" y1="188" x2="948" y2="570" gradientUnits="userSpaceOnUse">
      <stop stop-color="#F4B46A" stop-opacity="0.48" />
      <stop offset="1" stop-color="#8ABEFF" stop-opacity="0.18" />
    </linearGradient>
    <linearGradient id="shardWarm" x1="1180" y1="298" x2="1280" y2="388" gradientUnits="userSpaceOnUse">
      <stop stop-color="#F4B46A" />
      <stop offset="1" stop-color="#8ABEFF" />
    </linearGradient>
    <linearGradient id="shardCool" x1="1108" y1="226" x2="1188" y2="298" gradientUnits="userSpaceOnUse">
      <stop stop-color="#68E6D7" />
      <stop offset="1" stop-color="#8ABEFF" />
    </linearGradient>
    <linearGradient id="shardSea" x1="254" y1="592" x2="368" y2="706" gradientUnits="userSpaceOnUse">
      <stop stop-color="#68E6D7" />
      <stop offset="1" stop-color="#4B6FE3" />
    </linearGradient>
    <filter id="blurGlow" x="650" y="218" width="604" height="604" color-interpolation-filters="sRGB">
      <feGaussianBlur stdDeviation="44" />
    </filter>
    <filter id="panelShadow" x="236" y="516" width="1074" height="572" color-interpolation-filters="sRGB">
      <feDropShadow dx="0" dy="34" stdDeviation="36" flood-color="#000000" flood-opacity="0.34" />
    </filter>
  </defs>
</svg>
